<?xml version="1.0" encoding="UTF-8"?>
<svg id="_レイヤー_2" data-name="レイヤー 2" xmlns="http://www.w3.org/2000/svg" viewBox="0 0 120.25 120.25">
  <defs>
    <style>
      .cls-1 {
        fill: none;
      }

      .cls-2 {
        fill: #231815;
      }
    </style>
  </defs>
  <g id="_レイヤー_1-2" data-name="レイヤー 1">
    <g>
      <rect class="cls-1" width="120.25" height="120.25"/>
      <g>
        <path class="cls-2" d="M32.14,101.56c.09.05.15.08.2.1.12.05.23.12.3.2-.15.54-.5,1.01-1.07,1.41-.57.4-1.28.59-2.14.59-.54,0-1.08-.11-1.61-.34-.53-.23-.96-.53-1.27-.9-.25-.29-.43-.64-.55-1.06-.12-.42-.18-.77-.18-1.07,0-.35.08-.75.23-1.2.15-.45.41-.87.77-1.27.36-.4.81-.71,1.36-.95.55-.23,1.16-.35,1.85-.35.94,0,1.59.15,1.96.44s.55.59.55.88-.07.52-.22.68c-.15.17-.35.25-.62.25-.22,0-.43-.07-.61-.22-.19-.15-.34-.39-.47-.74-.1-.25-.22-.43-.38-.55-.15-.11-.33-.16-.55-.16-.51,0-.97.22-1.37.66-.4.44-.6,1.03-.6,1.79,0,.91.25,1.63.74,2.16s1.05.8,1.67.8c.31,0,.57-.03.79-.11.14-.05.32-.16.55-.32.06-.04.17-.16.34-.35s.28-.32.34-.38Z"/>
        <path class="cls-2" d="M41.8,97.94c.34.33.59.7.75,1.12.16.42.25.82.25,1.19,0,.7-.11,1.27-.32,1.7-.33.65-.76,1.13-1.31,1.44-.55.31-1.19.46-1.92.46-.82,0-1.51-.18-2.08-.55-.57-.37-.98-.78-1.22-1.25s-.37-1.05-.37-1.74c0-.35.06-.7.17-1.06.11-.35.27-.66.48-.92.2-.26.42-.48.67-.66.35-.25.71-.43,1.06-.54.35-.11.78-.16,1.29-.16,1.1,0,1.95.32,2.57.97ZM37.5,100.66c.05.65.08,1.03.1,1.13.07.35.18.65.32.91.1.16.26.31.5.43.23.13.51.19.83.19.38,0,.71-.12.97-.37.26-.24.45-.63.57-1.15.07-.34.11-.9.11-1.68,0-.96-.16-1.63-.47-2.03-.31-.4-.73-.59-1.24-.59-.4,0-.74.11-1,.34s-.45.56-.55,1c-.07.28-.11.89-.12,1.82Z"/>
        <path class="cls-2" d="M45.54,103.15s.1-.03.17-.04c.31-.02.56-.08.74-.16.04-.02.06-.05.07-.1,0-.05.02-.53.04-1.43v-1.26s0-.84,0-.84v-.19c0-.25-.06-.43-.17-.55-.11-.12-.41-.25-.89-.38v-.32c.1-.03.22-.06.35-.09.48-.1.88-.24,1.2-.43.24-.14.48-.35.72-.64h.43v.13l.02.63v.29s0,.14,0,.14c.5-.39.91-.65,1.25-.78s.71-.19,1.15-.19.81.09,1.2.27c.39.18.71.48.96.9.37-.36.68-.61.94-.76.17-.1.41-.19.71-.26s.59-.11.85-.11c.73,0,1.31.22,1.73.66.43.45.64,1.05.64,1.81v1.25c0,.26,0,.7-.02,1.33v.61c0,.1.03.21.09.31.2.09.38.14.53.17.1.02.2.05.3.11.01.1.02.18.04.24v.16c-.16.03-.26.04-.32.04-.04,0-.17-.01-.38-.04-.21-.02-.48-.03-.81-.03-.79,0-1.42.02-1.89.07-.04-.13-.06-.23-.06-.31v-.11c.08-.04.3-.13.68-.27.07-.07.11-.13.12-.18.03-.13.04-.41.04-.84l-.04-2.22c0-.37-.03-.68-.09-.92s-.13-.43-.23-.57-.24-.25-.41-.34c-.17-.09-.35-.13-.54-.13-.29,0-.59.08-.9.25-.3.16-.57.41-.81.75l-.02.23.02,1.01-.02.83v1.49c0,.35.03.55.09.61.1.1.36.17.77.21l.24.08c.04.12.06.22.06.29,0,.04-.01.1-.03.19h-.23s-.31,0-.31,0h-.16c-.37-.04-.76-.07-1.15-.07l-.84-.02c-.2,0-.56.02-1.06.07l-.14-.02-.02-.47c.16-.04.44-.08.85-.11.03,0,.06-.02.1-.03.06-.07.09-.13.1-.17.03-.1.04-.32.04-.64v-1.6s.02-.43.02-.43c0-.82-.03-1.32-.09-1.52-.07-.25-.23-.46-.46-.62-.23-.16-.51-.24-.84-.24-.43,0-.8.1-1.11.3-.31.2-.5.38-.54.54,0,.06,0,.11,0,.14l.02.08v.08s-.02.12-.05.22l.02,2.26v1.18s.02.11.03.2l.04.12c.15.05.27.08.37.1.19.04.34.09.44.14.02.09.02.15.02.19,0,.07-.02.16-.06.29-.08,0-.14,0-.18,0-.06,0-.32-.02-.79-.06h-.86c-.41,0-.91.02-1.49.07h-.23c-.01-.09-.02-.19-.03-.3,0-.05.01-.12.04-.2Z"/>
        <path class="cls-2" d="M61.23,99.5c.14-.45.26-.74.36-.89.29-.43.61-.77.94-1.01.33-.24.63-.4.9-.48.35-.1.63-.15.84-.15.49,0,.89.04,1.2.11.3.08.56.18.76.33.29.2.53.41.71.62s.32.46.44.74c.11.28.17.63.18,1.03l-.87-.02c-.24,0-.77-.02-1.59-.07-.3-.03-.51-.04-.63-.04-.04,0-.32,0-.85.02h-.68c-.01.07-.02.14-.02.19,0,.28.03.57.1.88.07.31.17.58.31.81s.31.44.51.6.41.29.63.36l.46.15c.4,0,.67-.01.81-.04.25-.05.47-.12.66-.2.19-.08.42-.22.7-.41.19.14.35.26.47.37-.46.51-.94.88-1.44,1.11-.5.23-1.05.34-1.66.34-.41,0-.75-.04-1.02-.11-.35-.09-.67-.24-.95-.43-.28-.19-.53-.44-.73-.72s-.36-.59-.46-.89c-.13-.4-.2-.72-.2-.96,0-.46.04-.87.11-1.24ZM65.8,99.17c0-.3-.06-.58-.17-.85s-.28-.48-.51-.63-.46-.23-.7-.23c-.35,0-.67.15-.95.46-.28.31-.44.73-.48,1.26l1.79.02c.11,0,.28,0,.49-.02.15-.01.26-.02.32-.02.05,0,.12,0,.21,0Z"/>
        <path class="cls-2" d="M70.36,97.71c.62-.26,1.07-.52,1.34-.77s.57-.66.89-1.23h.44c.05.14.07.28.07.43,0,.27,0,.49,0,.64l-.02.46s0,.09,0,.18h.18s.27,0,.74-.02c.04,0,.23,0,.59-.02.03.14.05.26.05.37,0,.12-.02.26-.06.42-.17.03-.3.05-.39.05-.04,0-.13-.01-.25-.03h-.55s-.38.02-.38.02l-.02,3.01c0,.58,0,.95.04,1.09.03.14.09.28.18.41.12.06.25.09.4.09s.25-.01.31-.04.18-.1.35-.23c.03-.03.08-.06.15-.11.13.1.23.2.31.3l.03.09c-.18.29-.44.52-.77.68-.33.17-.69.25-1.07.25-.49,0-.88-.15-1.19-.46-.3-.31-.46-.79-.46-1.44l.03-1.38v-2.24l-.24-.02-.57.02-.1-.04s-.05-.09-.05-.13c0-.03,0-.15.02-.35Z"/>
        <path class="cls-2" d="M77.43,99.5c.14-.45.26-.74.36-.89.29-.43.61-.77.94-1.01.33-.24.63-.4.9-.48.35-.1.63-.15.84-.15.49,0,.89.04,1.2.11.3.08.56.18.76.33.29.2.53.41.71.62s.32.46.44.74c.11.28.17.63.18,1.03l-.87-.02c-.24,0-.77-.02-1.59-.07-.3-.03-.51-.04-.63-.04-.04,0-.32,0-.85.02h-.68c-.01.07-.02.14-.02.19,0,.28.03.57.1.88.07.31.17.58.31.81s.31.44.51.6.41.29.63.36l.46.15c.4,0,.67-.01.81-.04.25-.05.47-.12.66-.2.19-.08.42-.22.7-.41.19.14.35.26.47.37-.46.51-.94.88-1.44,1.11-.5.23-1.05.34-1.66.34-.41,0-.75-.04-1.02-.11-.35-.09-.67-.24-.95-.43-.28-.19-.53-.44-.73-.72s-.36-.59-.46-.89c-.13-.4-.2-.72-.2-.96,0-.46.04-.87.11-1.24ZM82,99.17c0-.3-.06-.58-.17-.85s-.28-.48-.51-.63-.46-.23-.7-.23c-.35,0-.67.15-.95.46-.28.31-.44.73-.48,1.26l1.79.02c.11,0,.28,0,.49-.02.15-.01.26-.02.32-.02.05,0,.12,0,.21,0Z"/>
        <path class="cls-2" d="M86.51,103.28c.14-.06.26-.1.38-.13.29-.05.46-.09.5-.12.08-.05.13-.1.16-.17.03-.11.05-.34.05-.69v-1.24s-.02-.83-.02-.83v-.5c0-.33-.03-.6-.08-.81-.02-.08-.09-.16-.2-.24-.15-.1-.4-.21-.75-.31v-.38c.06-.02.12-.04.18-.04.05,0,.27-.06.63-.15.29-.1.48-.18.56-.22.03-.02.07-.04.13-.07.06-.05.13-.11.21-.16.16-.11.35-.3.57-.57l.42-.03-.02.89c-.01.09-.02.16-.02.21,0,.04,0,.16.02.36.43-.38.83-.64,1.19-.79.47-.19.91-.29,1.33-.29.49,0,.92.12,1.3.37s.62.53.73.85c.12.32.17.97.17,1.94l-.03,2.57c0,.12.02.22.06.3.05.04.2.07.43.11l.39.07c.05.07.07.15.07.25,0,.06,0,.15,0,.26l-1.54-.11-.46.02h-.36l-1.04.07h-.27c0-.07,0-.12,0-.15,0-.09,0-.19.02-.3.07-.02.26-.04.55-.08.08-.01.17-.03.26-.06.1-.04.16-.08.18-.13.04-.09.06-.26.06-.51,0-.44,0-.78,0-1.02v-.91c0-1.11-.06-1.8-.2-2.07-.2-.39-.5-.59-.89-.59-.29,0-.6.07-.91.22s-.64.38-.97.68l-.02.13.02.5-.02.53.03,1.26-.02.2c0,.85.03,1.34.1,1.45.07.11.33.23.79.37.02.09.02.16.02.2,0,.06-.02.16-.06.29-.16,0-.3,0-.41,0s-.28-.02-.52-.05l-.84-.02c-.42,0-1.03.02-1.82.06-.02-.05-.03-.11-.03-.16,0-.04,0-.12,0-.25Z"/>
      </g>
      <g>
        <path class="cls-2" d="M81.41,49.46c-1.47,1.39-2.99,1.66-4.48,1.86-2.3.31-4.62.59-6.94.62-2.31.03-3.51,1.34-4.36,3.17-1.12,2.39-1.87,4.89-1.98,7.56-.05,1.1-.07,2.23-.32,3.3-.17.75-.58,1.54-1.11,2.1-1.27,1.33-3.18,1.01-4.12-.58-1.11-1.87-1.14-4-1.4-6.07-.19-1.5-.35-3-.55-4.5-.35-2.63-2.25-4.17-4.74-4.57-3.49-.56-7.02-1.12-10.23-2.78-.67-.35-1.36-.69-1.94-1.16-1.67-1.34-1.41-3.29.55-4.13.58-.25,1.23-.4,1.86-.45,1.57-.13,3.15-.07,4.71-.27,1.89-.25,3.84-.48,5.62-1.11,2.76-.97,4.31-3.04,4.39-6.09.04-1.63.1-3.26.33-4.87.16-1.13.57-2.24.94-3.33.22-.64.43-1.08.71-1.81.24-.63,1.14-1.06,1.76-.97,1.01.07,1.9.53,2.71,2.46.93,2.22,1.55,4.5,1.81,6.89.16,1.5.44,2.99.63,4.49.14,1.11.8,1.76,1.74,2.23,2.13,1.05,4.37,1.49,6.76,1.41,1.62-.06,3.26.03,4.87.25,1.78.25,3.79,3.1,3.48,4.85-.11.65-.55,1.24-.67,1.52Z"/>
        <path class="cls-2" d="M96.69,79.21c1.5,1.77,2.08,3.87,1.19,6.06-.85,2.11-2.73,3.24-4.96,3.5-.74.09-1.57-.42-2.33-.73-.67-.28-1.19-.94-2.1-.42-.29.16-1.04-.12-1.35-.43-.53-.53-1-1.19-1.3-1.88-1.35-3.16.6-6.98,3.95-7.68,2.49-.52,4.88-.36,6.9,1.59Z"/>
        <path class="cls-2" d="M81.09,68.32c-.42.35-.97.8-1.52,1.24-.82.67-1.69.85-2.67.3-.38-.22-.81-.4-1.24-.49-2.92-.61-4.41-4.23-2.68-6.73,1.2-1.74,2.87-2.67,5.09-2.48,2.22.19,3.69,1.42,4.67,3.26.74,1.39.03,3.35-1.65,4.91Z"/>
        <path class="cls-2" d="M37.43,32.12c-1.58-1.69-1.71-2.94-.56-4.77,1.71-2.72,3.41-3.15,6.21-2.84,2.04.23,3.36,2.19,3.25,4.56-.1,2.02-1.85,4.03-3.66,4.1-.49.02-.99-.21-1.49-.29-.36-.06-.83-.22-1.07-.05-1.31.9-2-.09-2.68-.7Z"/>
        <path class="cls-2" d="M37.79,62.77c1.92-1.85,4.61-2.11,6.68-.64,2.05,1.45,2.72,3.69,1.77,5.93-.76,1.78-2.43,2.87-4.31,2.52-1.85-.35-3.53-1.19-4.66-2.8-1.25-1.79-1.06-3.48.52-5.01Z"/>
        <path class="cls-2" d="M81.59,26.32c1.16,1.14,1.5,2.5,1.07,4.05-.46,1.65-1.65,2.57-3.23,2.96-.52.13-1.13-.06-1.68-.16-.49-.09-.99-.41-1.45-.37-1.6.14-2.37-.83-2.88-2.07-.53-1.27-.76-2.57.16-3.83,2.01-2.74,5.62-3.02,8.02-.59Z"/>
      </g>
    </g>
  </g>
</svg>