<?xml version="1.0" encoding="UTF-8"?>
<svg xmlns="http://www.w3.org/2000/svg" xmlns:xlink="http://www.w3.org/1999/xlink" width="180px" height="180px" viewBox="0 0 180 180" version="1.1">
<g id="surface1">
<path style=" stroke:none;fill-rule:nonzero;fill:rgb(13.725491%,9.411765%,8.235294%);fill-opacity:1;" d="M 48.109375 152.023438 C 48.246094 152.097656 48.335938 152.144531 48.410156 152.171875 C 48.589844 152.246094 48.753906 152.351562 48.859375 152.472656 C 48.632812 153.28125 48.109375 153.984375 47.257812 154.582031 C 46.402344 155.183594 45.339844 155.464844 44.054688 155.464844 C 43.246094 155.464844 42.4375 155.300781 41.644531 154.957031 C 40.851562 154.613281 40.207031 154.164062 39.742188 153.609375 C 39.367188 153.175781 39.097656 152.652344 38.917969 152.023438 C 38.738281 151.394531 38.648438 150.871094 38.648438 150.421875 C 38.648438 149.898438 38.769531 149.300781 38.992188 148.625 C 39.21875 147.953125 39.609375 147.324219 40.144531 146.722656 C 40.683594 146.125 41.359375 145.660156 42.183594 145.300781 C 43.003906 144.957031 43.917969 144.777344 44.953125 144.777344 C 46.359375 144.777344 47.332031 145.003906 47.886719 145.4375 C 48.4375 145.871094 48.707031 146.320312 48.707031 146.753906 C 48.707031 147.1875 48.605469 147.53125 48.378906 147.773438 C 48.15625 148.027344 47.855469 148.144531 47.449219 148.144531 C 47.121094 148.144531 46.808594 148.042969 46.539062 147.816406 C 46.253906 147.59375 46.027344 147.234375 45.835938 146.710938 C 45.683594 146.335938 45.503906 146.066406 45.265625 145.886719 C 45.042969 145.722656 44.773438 145.648438 44.441406 145.648438 C 43.679688 145.648438 42.992188 145.976562 42.390625 146.632812 C 41.792969 147.292969 41.492188 148.175781 41.492188 149.3125 C 41.492188 150.675781 41.867188 151.753906 42.601562 152.546875 C 43.335938 153.339844 44.171875 153.746094 45.101562 153.746094 C 45.566406 153.746094 45.953125 153.699219 46.285156 153.578125 C 46.492188 153.503906 46.761719 153.339844 47.105469 153.101562 C 47.195312 153.042969 47.363281 152.863281 47.617188 152.578125 C 47.871094 152.292969 48.035156 152.097656 48.125 152.007812 Z M 48.109375 152.023438 "/>
<path style=" stroke:none;fill-rule:nonzero;fill:rgb(13.725491%,9.411765%,8.235294%);fill-opacity:1;" d="M 62.570312 146.605469 C 63.078125 147.097656 63.453125 147.652344 63.691406 148.28125 C 63.933594 148.910156 64.066406 149.507812 64.066406 150.0625 C 64.066406 151.109375 63.902344 151.964844 63.585938 152.605469 C 63.09375 153.578125 62.449219 154.296875 61.625 154.761719 C 60.804688 155.226562 59.84375 155.449219 58.753906 155.449219 C 57.523438 155.449219 56.492188 155.183594 55.640625 154.628906 C 54.785156 154.074219 54.171875 153.460938 53.8125 152.757812 C 53.453125 152.054688 53.257812 151.183594 53.257812 150.152344 C 53.257812 149.628906 53.347656 149.105469 53.511719 148.566406 C 53.679688 148.042969 53.917969 147.578125 54.230469 147.1875 C 54.53125 146.800781 54.859375 146.46875 55.234375 146.199219 C 55.757812 145.828125 56.296875 145.558594 56.820312 145.390625 C 57.34375 145.226562 57.988281 145.152344 58.753906 145.152344 C 60.398438 145.152344 61.671875 145.632812 62.597656 146.605469 Z M 56.132812 150.675781 C 56.207031 151.648438 56.253906 152.21875 56.28125 152.367188 C 56.386719 152.890625 56.550781 153.339844 56.761719 153.730469 C 56.910156 153.96875 57.152344 154.195312 57.511719 154.375 C 57.855469 154.566406 58.273438 154.65625 58.753906 154.65625 C 59.320312 154.65625 59.816406 154.476562 60.203125 154.105469 C 60.59375 153.746094 60.878906 153.160156 61.058594 152.382812 C 61.164062 151.875 61.222656 151.035156 61.222656 149.867188 C 61.222656 148.429688 60.984375 147.429688 60.519531 146.828125 C 60.054688 146.230469 59.425781 145.945312 58.664062 145.945312 C 58.0625 145.945312 57.554688 146.109375 57.164062 146.453125 C 56.777344 146.800781 56.492188 147.292969 56.34375 147.953125 C 56.238281 148.371094 56.179688 149.285156 56.164062 150.675781 Z M 56.132812 150.675781 "/>
<path style=" stroke:none;fill-rule:nonzero;fill:rgb(13.725491%,9.411765%,8.235294%);fill-opacity:1;" d="M 68.167969 154.402344 C 68.167969 154.402344 68.316406 154.359375 68.421875 154.34375 C 68.886719 154.3125 69.261719 154.222656 69.53125 154.105469 C 69.589844 154.074219 69.621094 154.027344 69.636719 153.953125 C 69.636719 153.878906 69.664062 153.160156 69.695312 151.8125 L 69.695312 149.925781 C 69.695312 149.925781 69.695312 148.671875 69.695312 148.671875 L 69.695312 148.386719 C 69.695312 148.011719 69.605469 147.742188 69.441406 147.5625 C 69.277344 147.382812 68.828125 147.1875 68.109375 146.992188 L 68.109375 146.515625 C 68.257812 146.46875 68.4375 146.425781 68.632812 146.378906 C 69.351562 146.230469 69.949219 146.019531 70.429688 145.738281 C 70.789062 145.527344 71.148438 145.210938 71.507812 144.777344 L 72.148438 144.777344 L 72.148438 144.972656 L 72.179688 145.914062 L 72.179688 146.351562 C 72.179688 146.351562 72.179688 146.558594 72.179688 146.558594 C 72.929688 145.976562 73.542969 145.585938 74.050781 145.390625 C 74.558594 145.199219 75.113281 145.109375 75.773438 145.109375 C 76.429688 145.109375 76.984375 145.242188 77.570312 145.511719 C 78.152344 145.78125 78.632812 146.230469 79.003906 146.859375 C 79.558594 146.320312 80.023438 145.945312 80.414062 145.722656 C 80.667969 145.570312 81.027344 145.4375 81.476562 145.332031 C 81.925781 145.226562 82.359375 145.167969 82.746094 145.167969 C 83.839844 145.167969 84.707031 145.496094 85.335938 146.15625 C 85.980469 146.828125 86.296875 147.726562 86.296875 148.863281 L 86.296875 150.734375 C 86.296875 151.125 86.296875 151.785156 86.265625 152.726562 L 86.265625 153.640625 C 86.265625 153.789062 86.308594 153.953125 86.398438 154.105469 C 86.699219 154.238281 86.96875 154.3125 87.191406 154.359375 C 87.34375 154.386719 87.492188 154.433594 87.640625 154.523438 C 87.65625 154.671875 87.671875 154.792969 87.703125 154.882812 L 87.703125 155.121094 C 87.460938 155.167969 87.3125 155.183594 87.222656 155.183594 C 87.164062 155.183594 86.96875 155.167969 86.65625 155.121094 C 86.339844 155.09375 85.9375 155.078125 85.441406 155.078125 C 84.257812 155.078125 83.316406 155.105469 82.613281 155.183594 C 82.554688 154.988281 82.523438 154.835938 82.523438 154.71875 L 82.523438 154.554688 C 82.644531 154.492188 82.972656 154.359375 83.539062 154.148438 C 83.644531 154.042969 83.707031 153.953125 83.71875 153.878906 C 83.765625 153.683594 83.78125 153.265625 83.78125 152.621094 L 83.71875 149.300781 C 83.71875 148.746094 83.675781 148.28125 83.585938 147.921875 C 83.496094 147.5625 83.390625 147.277344 83.242188 147.070312 C 83.09375 146.859375 82.882812 146.695312 82.628906 146.558594 C 82.375 146.425781 82.105469 146.363281 81.820312 146.363281 C 81.386719 146.363281 80.9375 146.484375 80.472656 146.738281 C 80.023438 146.980469 79.617188 147.351562 79.261719 147.863281 L 79.230469 148.207031 L 79.261719 149.71875 L 79.230469 150.960938 L 79.230469 153.191406 C 79.230469 153.714844 79.273438 154.015625 79.363281 154.105469 C 79.515625 154.253906 79.902344 154.359375 80.515625 154.417969 L 80.875 154.539062 C 80.9375 154.71875 80.964844 154.867188 80.964844 154.972656 C 80.964844 155.03125 80.953125 155.121094 80.921875 155.257812 L 80.578125 155.257812 C 80.578125 155.257812 80.113281 155.257812 80.113281 155.257812 L 79.875 155.257812 C 79.320312 155.195312 78.734375 155.152344 78.152344 155.152344 L 76.894531 155.121094 C 76.59375 155.121094 76.054688 155.152344 75.308594 155.226562 L 75.097656 155.195312 L 75.070312 154.492188 C 75.308594 154.433594 75.726562 154.375 76.339844 154.328125 C 76.386719 154.328125 76.429688 154.296875 76.492188 154.285156 C 76.582031 154.179688 76.625 154.089844 76.640625 154.027344 C 76.683594 153.878906 76.699219 153.550781 76.699219 153.070312 L 76.699219 150.675781 C 76.699219 150.675781 76.730469 150.03125 76.730469 150.03125 C 76.730469 148.804688 76.683594 148.054688 76.59375 147.757812 C 76.492188 147.382812 76.25 147.070312 75.90625 146.828125 C 75.5625 146.589844 75.144531 146.46875 74.648438 146.46875 C 74.003906 146.46875 73.453125 146.621094 72.988281 146.917969 C 72.523438 147.21875 72.238281 147.488281 72.179688 147.726562 C 72.179688 147.816406 72.179688 147.890625 72.179688 147.9375 L 72.210938 148.054688 L 72.210938 148.175781 C 72.210938 148.175781 72.179688 148.355469 72.132812 148.503906 L 72.164062 151.886719 L 72.164062 153.65625 C 72.164062 153.65625 72.195312 153.820312 72.210938 153.953125 L 72.269531 154.132812 C 72.492188 154.207031 72.671875 154.253906 72.824219 154.285156 C 73.109375 154.34375 73.332031 154.417969 73.480469 154.492188 C 73.511719 154.628906 73.511719 154.71875 73.511719 154.777344 C 73.511719 154.882812 73.480469 155.015625 73.421875 155.210938 C 73.300781 155.210938 73.210938 155.210938 73.152344 155.210938 C 73.0625 155.210938 72.671875 155.183594 71.96875 155.121094 L 70.683594 155.121094 C 70.070312 155.121094 69.320312 155.152344 68.453125 155.226562 L 68.109375 155.226562 C 68.09375 155.09375 68.078125 154.941406 68.0625 154.777344 C 68.0625 154.703125 68.078125 154.597656 68.125 154.476562 Z M 68.167969 154.402344 "/>
<path style=" stroke:none;fill-rule:nonzero;fill:rgb(13.725491%,9.411765%,8.235294%);fill-opacity:1;" d="M 91.652344 148.941406 C 91.863281 148.265625 92.042969 147.832031 92.191406 147.609375 C 92.628906 146.964844 93.105469 146.453125 93.601562 146.09375 C 94.09375 145.738281 94.542969 145.496094 94.945312 145.378906 C 95.472656 145.226562 95.890625 145.152344 96.203125 145.152344 C 96.9375 145.152344 97.535156 145.210938 98 145.316406 C 98.449219 145.4375 98.839844 145.585938 99.136719 145.8125 C 99.574219 146.109375 99.933594 146.425781 100.203125 146.738281 C 100.46875 147.054688 100.679688 147.429688 100.859375 147.847656 C 101.023438 148.265625 101.113281 148.789062 101.128906 149.390625 L 99.828125 149.359375 C 99.46875 149.359375 98.675781 149.328125 97.445312 149.253906 C 96.996094 149.210938 96.683594 149.195312 96.503906 149.195312 C 96.445312 149.195312 96.023438 149.195312 95.230469 149.222656 L 94.214844 149.222656 C 94.199219 149.328125 94.183594 149.433594 94.183594 149.507812 C 94.183594 149.925781 94.230469 150.363281 94.332031 150.824219 C 94.4375 151.289062 94.589844 151.695312 94.796875 152.039062 C 95.007812 152.382812 95.261719 152.695312 95.5625 152.9375 C 95.859375 153.175781 96.175781 153.371094 96.503906 153.476562 L 97.191406 153.699219 C 97.792969 153.699219 98.195312 153.683594 98.40625 153.640625 C 98.777344 153.566406 99.109375 153.460938 99.394531 153.339844 C 99.675781 153.222656 100.023438 153.011719 100.441406 152.726562 C 100.726562 152.9375 100.964844 153.117188 101.144531 153.28125 C 100.457031 154.042969 99.738281 154.597656 98.988281 154.941406 C 98.242188 155.285156 97.417969 155.449219 96.503906 155.449219 C 95.890625 155.449219 95.382812 155.390625 94.976562 155.285156 C 94.453125 155.152344 93.972656 154.925781 93.554688 154.644531 C 93.136719 154.359375 92.761719 153.984375 92.460938 153.566406 C 92.164062 153.144531 91.921875 152.683594 91.773438 152.234375 C 91.578125 151.632812 91.472656 151.15625 91.472656 150.796875 C 91.472656 150.105469 91.535156 149.492188 91.640625 148.941406 Z M 98.496094 148.445312 C 98.496094 147.996094 98.40625 147.578125 98.242188 147.171875 C 98.074219 146.769531 97.820312 146.453125 97.476562 146.230469 C 97.132812 146.003906 96.789062 145.886719 96.429688 145.886719 C 95.90625 145.886719 95.425781 146.109375 95.007812 146.574219 C 94.589844 147.039062 94.347656 147.667969 94.289062 148.460938 L 96.96875 148.492188 C 97.132812 148.492188 97.386719 148.492188 97.703125 148.460938 C 97.925781 148.445312 98.089844 148.429688 98.179688 148.429688 C 98.253906 148.429688 98.359375 148.429688 98.496094 148.429688 Z M 98.496094 148.445312 "/>
<path style=" stroke:none;fill-rule:nonzero;fill:rgb(13.725491%,9.411765%,8.235294%);fill-opacity:1;" d="M 105.320312 146.261719 C 106.25 145.871094 106.921875 145.480469 107.328125 145.109375 C 107.730469 144.734375 108.179688 144.121094 108.660156 143.265625 L 109.316406 143.265625 C 109.390625 143.476562 109.421875 143.6875 109.421875 143.910156 C 109.421875 144.3125 109.421875 144.644531 109.421875 144.867188 L 109.390625 145.558594 C 109.390625 145.558594 109.390625 145.691406 109.390625 145.828125 L 109.660156 145.828125 C 109.660156 145.828125 110.066406 145.828125 110.769531 145.796875 C 110.828125 145.796875 111.113281 145.796875 111.652344 145.765625 C 111.699219 145.976562 111.726562 146.15625 111.726562 146.320312 C 111.726562 146.5 111.699219 146.710938 111.636719 146.949219 C 111.382812 146.992188 111.1875 147.023438 111.054688 147.023438 C 110.992188 147.023438 110.859375 147.007812 110.679688 146.980469 L 109.855469 146.980469 C 109.855469 146.980469 109.289062 147.007812 109.289062 147.007812 L 109.257812 151.515625 C 109.257812 152.382812 109.257812 152.9375 109.316406 153.144531 C 109.363281 153.355469 109.453125 153.566406 109.585938 153.757812 C 109.765625 153.847656 109.960938 153.894531 110.183594 153.894531 C 110.410156 153.894531 110.558594 153.878906 110.648438 153.835938 C 110.738281 153.789062 110.917969 153.683594 111.171875 153.488281 C 111.21875 153.445312 111.292969 153.402344 111.398438 153.324219 C 111.59375 153.476562 111.742188 153.625 111.863281 153.773438 L 111.90625 153.910156 C 111.636719 154.34375 111.25 154.6875 110.753906 154.925781 C 110.261719 155.183594 109.722656 155.300781 109.152344 155.300781 C 108.417969 155.300781 107.835938 155.078125 107.371094 154.613281 C 106.921875 154.148438 106.683594 153.429688 106.683594 152.457031 L 106.726562 150.390625 L 106.726562 147.039062 L 106.367188 147.007812 L 105.515625 147.039062 L 105.367188 146.980469 C 105.367188 146.980469 105.289062 146.84375 105.289062 146.785156 C 105.289062 146.738281 105.289062 146.558594 105.320312 146.261719 Z M 105.320312 146.261719 "/>
<path style=" stroke:none;fill-rule:nonzero;fill:rgb(13.725491%,9.411765%,8.235294%);fill-opacity:1;" d="M 115.902344 148.941406 C 116.113281 148.265625 116.292969 147.832031 116.441406 147.609375 C 116.875 146.964844 117.355469 146.453125 117.847656 146.09375 C 118.34375 145.738281 118.792969 145.496094 119.195312 145.378906 C 119.71875 145.226562 120.140625 145.152344 120.453125 145.152344 C 121.1875 145.152344 121.785156 145.210938 122.25 145.316406 C 122.699219 145.4375 123.089844 145.585938 123.386719 145.8125 C 123.820312 146.109375 124.179688 146.425781 124.449219 146.738281 C 124.71875 147.054688 124.929688 147.429688 125.109375 147.847656 C 125.273438 148.265625 125.363281 148.789062 125.378906 149.390625 L 124.078125 149.359375 C 123.71875 149.359375 122.925781 149.328125 121.695312 149.253906 C 121.246094 149.210938 120.933594 149.195312 120.753906 149.195312 C 120.695312 149.195312 120.273438 149.195312 119.480469 149.222656 L 118.464844 149.222656 C 118.449219 149.328125 118.433594 149.433594 118.433594 149.507812 C 118.433594 149.925781 118.476562 150.363281 118.582031 150.824219 C 118.6875 151.289062 118.835938 151.695312 119.046875 152.039062 C 119.257812 152.382812 119.511719 152.695312 119.808594 152.9375 C 120.109375 153.175781 120.425781 153.371094 120.753906 153.476562 L 121.441406 153.699219 C 122.039062 153.699219 122.445312 153.683594 122.65625 153.640625 C 123.027344 153.566406 123.359375 153.460938 123.640625 153.339844 C 123.925781 153.222656 124.269531 153.011719 124.691406 152.726562 C 124.976562 152.9375 125.214844 153.117188 125.394531 153.28125 C 124.707031 154.042969 123.988281 154.597656 123.238281 154.941406 C 122.488281 155.285156 121.667969 155.449219 120.753906 155.449219 C 120.140625 155.449219 119.628906 155.390625 119.226562 155.285156 C 118.703125 155.152344 118.222656 154.925781 117.804688 154.644531 C 117.386719 154.359375 117.011719 153.984375 116.710938 153.566406 C 116.414062 153.144531 116.171875 152.683594 116.023438 152.234375 C 115.828125 151.632812 115.722656 151.15625 115.722656 150.796875 C 115.722656 150.105469 115.785156 149.492188 115.886719 148.941406 Z M 122.746094 148.445312 C 122.746094 147.996094 122.65625 147.578125 122.488281 147.171875 C 122.324219 146.769531 122.070312 146.453125 121.726562 146.230469 C 121.382812 146.003906 121.039062 145.886719 120.679688 145.886719 C 120.15625 145.886719 119.675781 146.109375 119.257812 146.574219 C 118.835938 147.039062 118.597656 147.667969 118.539062 148.460938 L 121.21875 148.492188 C 121.382812 148.492188 121.636719 148.492188 121.949219 148.460938 C 122.175781 148.445312 122.339844 148.429688 122.429688 148.429688 C 122.503906 148.429688 122.609375 148.429688 122.746094 148.429688 Z M 122.746094 148.445312 "/>
<path style=" stroke:none;fill-rule:nonzero;fill:rgb(13.725491%,9.411765%,8.235294%);fill-opacity:1;" d="M 129.496094 154.597656 C 129.703125 154.507812 129.882812 154.449219 130.0625 154.402344 C 130.5 154.328125 130.753906 154.269531 130.8125 154.222656 C 130.933594 154.148438 131.007812 154.074219 131.050781 153.96875 C 131.097656 153.804688 131.125 153.460938 131.125 152.9375 L 131.125 151.082031 C 131.125 151.082031 131.097656 149.835938 131.097656 149.835938 L 131.097656 149.089844 C 131.097656 148.59375 131.050781 148.191406 130.976562 147.875 C 130.945312 147.757812 130.84375 147.636719 130.679688 147.519531 C 130.453125 147.367188 130.078125 147.203125 129.554688 147.054688 L 129.554688 146.484375 C 129.644531 146.453125 129.734375 146.425781 129.824219 146.425781 C 129.898438 146.425781 130.230469 146.335938 130.765625 146.199219 C 131.203125 146.050781 131.484375 145.929688 131.605469 145.871094 C 131.652344 145.839844 131.710938 145.8125 131.800781 145.765625 C 131.890625 145.691406 131.996094 145.601562 132.113281 145.527344 C 132.355469 145.363281 132.636719 145.078125 132.96875 144.671875 L 133.597656 144.628906 L 133.566406 145.960938 C 133.550781 146.09375 133.535156 146.199219 133.535156 146.273438 C 133.535156 146.335938 133.535156 146.515625 133.566406 146.8125 C 134.210938 146.246094 134.808594 145.855469 135.347656 145.632812 C 136.050781 145.347656 136.710938 145.199219 137.339844 145.199219 C 138.074219 145.199219 138.714844 145.378906 139.285156 145.75 C 139.855469 146.125 140.210938 146.542969 140.378906 147.023438 C 140.558594 147.503906 140.632812 148.476562 140.632812 149.925781 L 140.585938 153.773438 C 140.585938 153.953125 140.617188 154.105469 140.675781 154.222656 C 140.75 154.285156 140.976562 154.328125 141.320312 154.386719 L 141.90625 154.492188 C 141.980469 154.597656 142.007812 154.71875 142.007812 154.867188 C 142.007812 154.957031 142.007812 155.09375 142.007812 155.257812 L 139.703125 155.09375 L 139.015625 155.121094 L 138.476562 155.121094 L 136.917969 155.226562 L 136.515625 155.226562 C 136.515625 155.121094 136.515625 155.046875 136.515625 155.003906 C 136.515625 154.867188 136.515625 154.71875 136.546875 154.554688 C 136.648438 154.523438 136.933594 154.492188 137.367188 154.433594 C 137.488281 154.417969 137.625 154.386719 137.757812 154.34375 C 137.90625 154.285156 137.996094 154.222656 138.027344 154.148438 C 138.085938 154.015625 138.117188 153.757812 138.117188 153.386719 C 138.117188 152.726562 138.117188 152.21875 138.117188 151.859375 L 138.117188 150.496094 C 138.117188 148.835938 138.027344 147.800781 137.816406 147.398438 C 137.519531 146.8125 137.070312 146.515625 136.484375 146.515625 C 136.050781 146.515625 135.585938 146.621094 135.125 146.84375 C 134.660156 147.070312 134.164062 147.414062 133.671875 147.863281 L 133.640625 148.054688 L 133.671875 148.804688 L 133.640625 149.597656 L 133.6875 151.484375 L 133.65625 151.785156 C 133.65625 153.054688 133.703125 153.789062 133.804688 153.953125 C 133.910156 154.117188 134.300781 154.296875 134.988281 154.507812 C 135.019531 154.644531 135.019531 154.746094 135.019531 154.808594 C 135.019531 154.898438 134.988281 155.046875 134.929688 155.242188 C 134.6875 155.242188 134.480469 155.242188 134.316406 155.242188 C 134.152344 155.242188 133.894531 155.210938 133.535156 155.167969 L 132.28125 155.136719 C 131.652344 155.136719 130.738281 155.167969 129.554688 155.226562 C 129.523438 155.152344 129.511719 155.0625 129.511719 154.988281 C 129.511719 154.925781 129.511719 154.808594 129.511719 154.613281 Z M 129.496094 154.597656 "/>
<path style=" stroke:none;fill-rule:nonzero;fill:rgb(13.725491%,9.411765%,8.235294%);fill-opacity:1;" d="M 121.859375 74.035156 C 119.660156 76.117188 117.386719 76.519531 115.15625 76.820312 C 111.710938 77.285156 108.238281 77.703125 104.765625 77.746094 C 101.308594 77.792969 99.511719 79.753906 98.242188 82.492188 C 96.5625 86.070312 95.441406 89.8125 95.277344 93.808594 C 95.203125 95.457031 95.171875 97.148438 94.796875 98.75 C 94.542969 99.871094 93.929688 101.054688 93.136719 101.894531 C 91.234375 103.882812 88.375 103.40625 86.96875 101.023438 C 85.308594 98.226562 85.261719 95.035156 84.875 91.9375 C 84.589844 89.691406 84.347656 87.449219 84.050781 85.203125 C 83.527344 81.265625 80.683594 78.960938 76.953125 78.363281 C 71.730469 77.523438 66.445312 76.683594 61.640625 74.199219 C 60.636719 73.675781 59.605469 73.167969 58.738281 72.464844 C 56.238281 70.457031 56.628906 67.539062 59.5625 66.28125 C 60.429688 65.90625 61.402344 65.683594 62.34375 65.609375 C 64.695312 65.414062 67.058594 65.503906 69.394531 65.203125 C 72.222656 64.828125 75.144531 64.484375 77.808594 63.542969 C 81.9375 62.089844 84.257812 58.992188 84.378906 54.425781 C 84.4375 51.988281 84.527344 49.546875 84.875 47.136719 C 85.113281 45.445312 85.726562 43.785156 86.28125 42.152344 C 86.609375 41.195312 86.925781 40.535156 87.34375 39.441406 C 87.703125 38.5 89.050781 37.855469 89.976562 37.992188 C 91.488281 38.09375 92.820312 38.785156 94.035156 41.671875 C 95.425781 44.996094 96.355469 48.410156 96.742188 51.988281 C 96.984375 54.230469 97.402344 56.460938 97.6875 58.707031 C 97.894531 60.371094 98.882812 61.34375 100.292969 62.046875 C 103.480469 63.617188 106.832031 64.277344 110.410156 64.15625 C 112.835938 64.066406 115.289062 64.203125 117.699219 64.53125 C 120.363281 64.90625 123.371094 69.171875 122.910156 71.789062 C 122.746094 72.761719 122.085938 73.648438 121.90625 74.066406 Z M 121.859375 74.035156 "/>
<path style=" stroke:none;fill-rule:nonzero;fill:rgb(13.725491%,9.411765%,8.235294%);fill-opacity:1;" d="M 144.734375 118.566406 C 146.980469 121.21875 147.847656 124.359375 146.515625 127.640625 C 145.242188 130.796875 142.429688 132.488281 139.089844 132.878906 C 137.984375 133.011719 136.738281 132.25 135.601562 131.785156 C 134.597656 131.367188 133.820312 130.378906 132.460938 131.15625 C 132.023438 131.394531 130.902344 130.976562 130.4375 130.511719 C 129.644531 129.71875 128.941406 128.730469 128.492188 127.699219 C 126.472656 122.96875 129.390625 117.25 134.40625 116.203125 C 138.132812 115.425781 141.710938 115.664062 144.734375 118.582031 Z M 144.734375 118.566406 "/>
<path style=" stroke:none;fill-rule:nonzero;fill:rgb(13.725491%,9.411765%,8.235294%);fill-opacity:1;" d="M 121.382812 102.265625 C 120.753906 102.789062 119.929688 103.464844 119.105469 104.125 C 117.878906 105.125 116.578125 105.394531 115.109375 104.570312 C 114.542969 104.242188 113.898438 103.972656 113.253906 103.839844 C 108.882812 102.925781 106.652344 97.507812 109.242188 93.765625 C 111.039062 91.160156 113.539062 89.769531 116.863281 90.050781 C 120.183594 90.335938 122.386719 92.179688 123.851562 94.933594 C 124.960938 97.011719 123.898438 99.945312 121.382812 102.28125 Z M 121.382812 102.265625 "/>
<path style=" stroke:none;fill-rule:nonzero;fill:rgb(13.725491%,9.411765%,8.235294%);fill-opacity:1;" d="M 56.027344 48.078125 C 53.664062 45.550781 53.46875 43.679688 55.191406 40.941406 C 57.75 36.867188 60.292969 36.222656 64.484375 36.6875 C 67.539062 37.03125 69.515625 39.964844 69.351562 43.515625 C 69.199219 46.539062 66.582031 49.546875 63.871094 49.652344 C 63.136719 49.679688 62.390625 49.335938 61.640625 49.21875 C 61.101562 49.128906 60.398438 48.886719 60.039062 49.144531 C 58.078125 50.488281 57.046875 49.007812 56.027344 48.09375 Z M 56.027344 48.078125 "/>
<path style=" stroke:none;fill-rule:nonzero;fill:rgb(13.725491%,9.411765%,8.235294%);fill-opacity:1;" d="M 56.566406 93.960938 C 59.441406 91.191406 63.46875 90.800781 66.566406 93 C 69.636719 95.171875 70.636719 98.523438 69.214844 101.878906 C 68.078125 104.542969 65.578125 106.171875 62.765625 105.648438 C 59.996094 105.125 57.480469 103.867188 55.789062 101.457031 C 53.917969 98.777344 54.203125 96.25 56.566406 93.960938 Z M 56.566406 93.960938 "/>
<path style=" stroke:none;fill-rule:nonzero;fill:rgb(13.725491%,9.411765%,8.235294%);fill-opacity:1;" d="M 122.128906 39.398438 C 123.867188 41.105469 124.375 43.140625 123.730469 45.460938 C 123.042969 47.929688 121.261719 49.308594 118.898438 49.890625 C 118.117188 50.085938 117.207031 49.800781 116.382812 49.652344 C 115.648438 49.515625 114.902344 49.039062 114.210938 49.097656 C 111.816406 49.308594 110.664062 47.855469 109.902344 46 C 109.109375 44.097656 108.761719 42.152344 110.140625 40.265625 C 113.148438 36.164062 118.554688 35.746094 122.144531 39.382812 Z M 122.128906 39.398438 "/>
</g>
</svg>
