<?xml version="1.0" encoding="UTF-8"?>
<svg id="_レイヤー_1" data-name="レイヤー 1" xmlns="http://www.w3.org/2000/svg" viewBox="0 0 180 180">
  <defs>
    <style>
      .cls-1 {
        fill: #231815;
      }

      .cls-2 {
        fill: #fff;
      }

      .cls-3 {
        fill: none;
      }
    </style>
  </defs>
  <rect class="cls-2" width="180" height="180"/>
  <g>
    <rect class="cls-3" width="180" height="180"/>
    <g>
      <path class="cls-1" d="M48.1,152.02c.13.07.23.12.29.15.19.08.34.18.45.31-.22.81-.75,1.52-1.6,2.11-.85.59-1.92.89-3.21.89-.81,0-1.62-.17-2.41-.51-.8-.34-1.43-.79-1.9-1.35-.37-.43-.64-.96-.82-1.59-.18-.63-.27-1.16-.27-1.6,0-.53.11-1.13.34-1.8.23-.67.61-1.3,1.15-1.9.54-.59,1.21-1.07,2.03-1.42.82-.35,1.74-.52,2.76-.52,1.41,0,2.39.22,2.94.66s.83.88.83,1.32-.11.77-.34,1.02c-.22.25-.53.37-.92.37-.33,0-.64-.11-.92-.33-.28-.22-.52-.59-.7-1.11-.15-.37-.33-.65-.56-.82-.23-.16-.5-.24-.82-.24-.76,0-1.45.33-2.05.98-.6.66-.9,1.55-.9,2.68,0,1.36.37,2.44,1.1,3.24s1.57,1.2,2.51,1.2c.46,0,.86-.05,1.18-.16.2-.07.48-.23.83-.48.09-.07.26-.24.51-.52s.42-.48.51-.57Z"/>
      <path class="cls-1" d="M62.57,146.61c.5.49.88,1.05,1.13,1.68.25.63.37,1.23.37,1.78,0,1.05-.16,1.9-.48,2.54-.49.97-1.14,1.69-1.97,2.16-.83.46-1.78.69-2.88.69-1.23,0-2.27-.28-3.12-.83-.85-.55-1.46-1.17-1.83-1.87s-.55-1.57-.55-2.6c0-.53.09-1.05.26-1.58.17-.53.41-.99.71-1.38.3-.39.64-.72,1-.99.53-.38,1.06-.65,1.59-.81.53-.16,1.17-.24,1.93-.24,1.64,0,2.93.48,3.84,1.45ZM56.13,150.67c.07.98.12,1.54.15,1.69.1.53.26.98.48,1.36.15.24.4.46.74.65.35.19.76.28,1.24.28.57,0,1.06-.18,1.45-.55.39-.36.67-.94.85-1.72.11-.51.17-1.35.17-2.51,0-1.43-.24-2.44-.71-3.04-.47-.59-1.09-.89-1.86-.89-.6,0-1.11.17-1.5.51s-.67.84-.83,1.5c-.1.43-.16,1.33-.18,2.72Z"/>
      <path class="cls-1" d="M68.16,154.4c.06-.03.15-.05.26-.06.46-.03.83-.11,1.11-.25.05-.02.09-.07.1-.15.01-.08.03-.79.07-2.14v-1.89s0-1.26,0-1.26v-.28c0-.37-.08-.64-.25-.82-.17-.18-.61-.37-1.32-.57v-.48c.15-.04.33-.08.53-.13.72-.15,1.32-.36,1.79-.64.36-.21.72-.53,1.07-.95h.65v.19l.03.94v.44s.01.21.01.21c.75-.59,1.37-.98,1.87-1.17s1.07-.28,1.71-.28,1.22.13,1.8.4c.58.27,1.06.71,1.44,1.34.56-.54,1.02-.92,1.4-1.13.26-.15.61-.28,1.07-.39s.88-.17,1.28-.17c1.09,0,1.96.33,2.59.99.64.67.95,1.57.95,2.71v1.87c0,.38-.01,1.05-.04,1.99v.91c0,.16.05.31.14.46.31.13.57.21.79.25.16.02.31.08.45.16.02.14.04.26.06.36v.24c-.23.04-.39.06-.48.06-.06,0-.25-.02-.57-.05-.32-.03-.72-.05-1.21-.05-1.19,0-2.13.04-2.83.11-.06-.2-.08-.35-.08-.47v-.16c.11-.05.45-.19,1.02-.4.1-.1.16-.19.18-.27.04-.2.06-.61.06-1.26l-.06-3.32c0-.56-.05-1.02-.13-1.38s-.19-.65-.35-.86-.36-.38-.62-.51c-.26-.13-.53-.2-.81-.2-.44,0-.89.12-1.34.37-.46.25-.86.62-1.21,1.12l-.02.34.04,1.51-.02,1.24v2.23c-.01.52.04.82.14.92.16.15.54.26,1.15.32l.37.12c.06.18.09.33.09.43,0,.06-.02.15-.05.29h-.34s-.47-.01-.47-.01h-.25c-.56-.07-1.13-.1-1.73-.11l-1.26-.02c-.31,0-.83.04-1.59.11l-.21-.04-.02-.71c.24-.07.66-.12,1.27-.17.04,0,.09-.02.15-.05.09-.1.14-.19.15-.26.04-.16.06-.47.06-.95v-2.39s.02-.64.02-.64c0-1.23-.04-1.98-.13-2.27-.11-.38-.34-.68-.69-.92-.35-.24-.77-.36-1.26-.36-.64,0-1.19.15-1.67.45-.47.3-.74.57-.81.81,0,.09-.01.17-.01.21l.02.12v.12c0,.07-.02.18-.07.33l.03,3.38v1.77c.01.06.02.16.05.31l.06.18c.22.07.4.12.56.15.29.06.51.13.65.21.02.13.03.23.03.28,0,.1-.03.25-.09.43-.13,0-.22.01-.27.01-.09,0-.48-.03-1.18-.09h-1.28c-.61-.01-1.36.03-2.23.11h-.34c-.02-.14-.03-.28-.05-.45,0-.07.02-.17.06-.31Z"/>
      <path class="cls-1" d="M91.65,148.94c.2-.67.38-1.11.54-1.33.44-.64.91-1.15,1.41-1.51.5-.36.95-.6,1.35-.72.52-.15.94-.22,1.26-.22.74,0,1.33.06,1.79.17.45.11.84.28,1.14.49.44.31.79.62,1.06.93s.48.68.65,1.11c.17.42.26.94.28,1.54l-1.31-.02c-.36,0-1.16-.03-2.38-.1-.45-.04-.77-.06-.94-.06-.06,0-.48,0-1.27.02h-1.01c-.02.11-.02.2-.02.28,0,.42.05.86.15,1.32.1.46.26.87.46,1.22s.46.65.76.9.61.43.94.54l.68.22c.6,0,1.01-.02,1.21-.06.38-.08.71-.18.99-.3.29-.12.63-.33,1.04-.62.28.2.52.39.71.55-.69.76-1.41,1.31-2.15,1.65-.74.34-1.57.51-2.49.51-.62,0-1.13-.05-1.52-.17-.53-.14-1-.36-1.43-.65-.42-.29-.79-.65-1.09-1.09s-.53-.88-.68-1.33c-.2-.6-.29-1.08-.29-1.44,0-.68.06-1.3.17-1.85ZM98.49,148.44c0-.44-.09-.86-.26-1.27s-.42-.72-.77-.94-.69-.34-1.05-.34c-.53,0-1,.23-1.42.69-.42.46-.66,1.09-.72,1.89l2.69.02c.17,0,.42-.01.73-.03.23-.02.39-.03.48-.03.07,0,.18,0,.32,0Z"/>
      <path class="cls-1" d="M105.32,146.26c.93-.39,1.6-.78,2.01-1.15s.85-.99,1.32-1.84h.66c.07.2.11.42.11.65,0,.41,0,.73-.01.95l-.04.69s0,.13.01.27h.27s.41,0,1.11-.04c.05,0,.35,0,.88-.02.05.21.07.4.07.56,0,.18-.03.39-.08.63-.26.05-.46.07-.59.07-.06,0-.19-.02-.38-.05h-.83s-.57.02-.57.02l-.02,4.5c0,.87,0,1.42.05,1.63.04.22.14.42.28.62.18.09.38.13.6.13s.37-.02.47-.06.27-.15.52-.34c.05-.04.12-.09.22-.17.19.15.34.3.46.45l.05.14c-.27.43-.66.77-1.16,1.02-.5.25-1.03.37-1.6.37-.73,0-1.32-.23-1.78-.69-.46-.46-.68-1.18-.68-2.15l.05-2.07v-3.35l-.37-.02-.85.02-.15-.06c-.05-.07-.07-.14-.07-.2,0-.05,0-.22.02-.52Z"/>
      <path class="cls-1" d="M115.9,148.94c.2-.67.38-1.11.54-1.33.44-.64.91-1.15,1.41-1.51.5-.36.95-.6,1.35-.72.52-.15.94-.22,1.26-.22.74,0,1.33.06,1.79.17.45.11.84.28,1.14.49.44.31.79.62,1.06.93s.48.68.65,1.11c.17.42.26.94.28,1.54l-1.31-.02c-.36,0-1.16-.03-2.38-.1-.45-.04-.77-.06-.94-.06-.06,0-.48,0-1.27.02h-1.01c-.02.11-.02.2-.02.28,0,.42.05.86.15,1.32.1.46.26.87.46,1.22s.46.65.76.9.61.43.94.54l.68.22c.6,0,1.01-.02,1.21-.06.38-.08.71-.18.99-.3.29-.12.63-.33,1.04-.62.28.2.52.39.71.55-.69.76-1.41,1.31-2.15,1.65-.74.34-1.57.51-2.49.51-.62,0-1.13-.05-1.52-.17-.53-.14-1-.36-1.43-.65-.42-.29-.79-.65-1.09-1.09s-.53-.88-.68-1.33c-.2-.6-.29-1.08-.29-1.44,0-.68.06-1.3.17-1.85ZM122.75,148.44c0-.44-.09-.86-.26-1.27s-.42-.72-.77-.94-.69-.34-1.05-.34c-.53,0-1,.23-1.42.69-.42.46-.66,1.09-.72,1.89l2.69.02c.17,0,.42-.01.73-.03.23-.02.39-.03.48-.03.07,0,.18,0,.32,0Z"/>
      <path class="cls-1" d="M129.5,154.6c.2-.09.39-.16.57-.19.43-.07.68-.13.75-.18.12-.07.2-.16.24-.26.05-.16.07-.5.07-1.04v-1.86s-.02-1.24-.02-1.24v-.74c0-.5-.04-.9-.12-1.21-.03-.12-.13-.24-.29-.35-.22-.16-.59-.31-1.12-.46v-.57c.09-.03.18-.05.27-.07.08-.01.4-.09.95-.23.43-.16.71-.27.84-.33.04-.02.1-.06.19-.11.09-.08.2-.16.32-.24.24-.17.52-.45.85-.86l.64-.05-.02,1.33c-.02.13-.02.24-.02.32,0,.06,0,.24.02.54.65-.57,1.24-.96,1.78-1.18.7-.29,1.36-.44,1.99-.44.74,0,1.38.18,1.94.55s.92.79,1.09,1.27c.17.48.26,1.45.26,2.9l-.05,3.85c0,.18.03.33.09.45.08.05.29.11.65.17l.58.11c.07.1.11.22.11.37,0,.09,0,.22-.01.38l-2.31-.17-.68.02h-.54l-1.56.11h-.4c0-.1-.01-.18-.01-.23,0-.14,0-.28.02-.45.11-.02.38-.06.82-.12.12-.02.25-.04.39-.08.16-.06.25-.13.27-.19.06-.13.09-.39.09-.77,0-.66,0-1.17-.01-1.52v-1.37c.01-1.66-.09-2.69-.31-3.1-.3-.59-.74-.88-1.34-.88-.44,0-.89.11-1.36.34s-.96.56-1.46,1.02l-.02.2.02.74-.02.79.05,1.89-.02.29c0,1.28.05,2,.15,2.17.1.16.5.35,1.18.55.02.13.04.23.04.29,0,.09-.03.24-.08.44-.24,0-.45.01-.61.01s-.43-.03-.78-.08l-1.26-.03c-.63,0-1.54.03-2.73.08-.03-.08-.05-.16-.05-.24,0-.06,0-.19.01-.37Z"/>
    </g>
    <g>
      <path class="cls-1" d="M121.87,74.04c-2.21,2.09-4.48,2.49-6.7,2.79-3.45.46-6.92.89-10.39.93-3.46.04-5.25,2-6.53,4.74-1.67,3.58-2.8,7.32-2.97,11.31-.07,1.65-.11,3.34-.48,4.94-.26,1.12-.87,2.31-1.66,3.14-1.9,1.99-4.77,1.52-6.17-.86-1.65-2.8-1.71-5.99-2.1-9.08-.28-2.25-.52-4.5-.82-6.74-.52-3.93-3.37-6.25-7.1-6.85-5.22-.84-10.51-1.68-15.31-4.16-1-.52-2.04-1.04-2.91-1.74-2.51-2.01-2.12-4.92.82-6.18.87-.37,1.84-.6,2.78-.68,2.34-.19,4.72-.1,7.05-.41,2.83-.38,5.74-.72,8.41-1.66,4.14-1.46,6.45-4.55,6.57-9.11.06-2.43.15-4.88.49-7.29.24-1.7.85-3.35,1.41-4.98.33-.96.65-1.61,1.07-2.71.36-.94,1.7-1.58,2.64-1.45,1.51.11,2.84.79,4.05,3.68,1.39,3.32,2.32,6.74,2.7,10.32.24,2.25.66,4.48.94,6.72.21,1.66,1.2,2.64,2.61,3.34,3.2,1.57,6.55,2.24,10.12,2.11,2.43-.08,4.89.04,7.29.37,2.67.37,5.67,4.64,5.2,7.26-.17.97-.82,1.86-1.01,2.27Z"/>
      <path class="cls-1" d="M144.74,118.57c2.25,2.64,3.11,5.79,1.78,9.07-1.28,3.16-4.09,4.85-7.42,5.23-1.11.13-2.35-.63-3.49-1.09-1.01-.41-1.78-1.41-3.14-.63-.43.25-1.56-.18-2.02-.65-.8-.79-1.5-1.78-1.94-2.81-2.02-4.73.9-10.44,5.91-11.5,3.72-.78,7.3-.54,10.33,2.38Z"/>
      <path class="cls-1" d="M121.38,102.27c-.63.52-1.45,1.19-2.27,1.86-1.23,1-2.53,1.27-3.99.44-.57-.33-1.21-.6-1.86-.74-4.37-.92-6.61-6.34-4.01-10.08,1.8-2.6,4.29-3.99,7.62-3.72,3.33.28,5.52,2.13,6.98,4.89,1.11,2.08.05,5.01-2.47,7.35Z"/>
      <path class="cls-1" d="M56.02,48.08c-2.37-2.53-2.56-4.41-.83-7.15,2.56-4.07,5.11-4.71,9.29-4.25,3.06.34,5.04,3.28,4.87,6.82-.14,3.03-2.77,6.03-5.49,6.14-.74.03-1.49-.32-2.24-.44-.53-.09-1.25-.32-1.6-.08-1.96,1.35-2.99-.14-4.01-1.05Z"/>
      <path class="cls-1" d="M56.57,93.96c2.88-2.77,6.9-3.15,10-.96,3.07,2.17,4.06,5.53,2.64,8.88-1.13,2.67-3.63,4.3-6.45,3.77-2.78-.52-5.29-1.78-6.98-4.2-1.87-2.68-1.58-5.22.79-7.49Z"/>
      <path class="cls-1" d="M122.14,39.4c1.74,1.71,2.25,3.74,1.6,6.07-.69,2.48-2.47,3.85-4.84,4.43-.77.19-1.69-.09-2.52-.24-.74-.13-1.47-.61-2.18-.55-2.39.21-3.54-1.24-4.31-3.09-.79-1.9-1.14-3.85.24-5.74,3.01-4.1,8.41-4.52,12.01-.88Z"/>
    </g>
  </g>
</svg>